<svg xmlns="http://www.w3.org/2000/svg" width="296.942" height="290.408" id="calvin-klein">
  <path d="M275.673 221.1a15.012 15.012 0 0 1-11.818-5.745L167.643 91.1l42.435-40.927q16.653-15.973 33.91-31.3C254.78 9.31 271.577 5.436 286.082 5.436c.148 0 0-5.276 0-5.276h-82.966v4.968l12.825.2a89.1 89.1 0 0 1 13.566 1.109 5.115 5.115 0 0 1 3.558 7.531 76.746 76.746 0 0 1-11.978 15.988c-21.357 21.727-75.585 73.854-81.732 79.744-.123-10.7.007-104.43.007-104.43l32.235.006V0H77.622v5.276l28.59-.025.062 215.664-29.715-.015v5.887c-.006-.08 94.649 0 94.649 0v-5.733l-32.075.006.025-101.9c-.049-.012 2.335-1.989 4-3.367 3.12 3.873 6.74 8.358 6.777 8.371l73.719 96.8-29.048.006v5.881h99.931v-5.733c.074 0-13.844-.025-18.861-.025Z"></path>
  <path d="M77.001 56.205a39.883 39.883 0 0 0-34.033-6.888 51.819 51.819 0 0 0-26.111 16.408 70.948 70.948 0 0 0-12.504 70.353c5.56 14.709 16.006 28.257 30.771 34.6a50.774 50.774 0 0 0 18.848 4.028 18.963 18.963 0 0 0 2.644-.142 45.344 45.344 0 0 0 22.678-9.7c2.409-1.934 5.745-4.541 8.865-2.459 2.31 1.514 3.107 7.271 3.132 7.3h3.083l.037-40.439-3.12-.019s-.216 3.558-.253 5.146a35.058 35.058 0 0 1-3.589 13.233 200.132 200.132 0 0 1-2.224 4.158c-7.457 13.653-24.353 23.463-39.995 18.539a28.726 28.726 0 0 1-17.735-16.275c-8.056-19.305-9.248-40.835-6.345-61.382a136.222 136.222 0 0 1 3.317-16.445 36.6 36.6 0 0 1 15.384-21.143 20.376 20.376 0 0 1 4.6-2.187A33.781 33.781 0 0 1 81.266 63.97a49.181 49.181 0 0 1 9.866 22.882c.142 1.18.55 3.534.55 3.534h2.891l.019-36.64-3.416.006c.031 0-.006 1.433-.025 2.131-.08 3.62-4.009 4.85-7.141 4.318-2.768-.476-4.856-2.335-7.012-4ZM291.629.451v.575h-1.452v4.207h-.593V1.026h-1.452V.451Zm1.18 0h.84l1.236 4.046 1.23-4.046h.828v4.782h-.556V2.409l.006-.482.008-.728-1.229 4.034h-.581l-1.238-4.034v.148l.006.531.012.525v2.823h-.562Z"></path>
  <g transform="translate(32.767 252.422)">
    <path d="M54.207 36.461h-2.891v-3.967a10.5 10.5 0 0 1-8.877 4.5 11.951 11.951 0 0 1-12.09-11.843A11.822 11.822 0 0 1 42.482 13.35a10.739 10.739 0 0 1 8.834 4.541v-4h2.891v22.57ZM59.526.741h2.885v35.713h-2.885Zm31.118 13.14h2.889v22.58h-2.889Zm7.6 0h2.891v2.934c2.398-2.554 3.649-3.254 6.374-3.254 6.147 0 8.964 4.108 8.964 10.626v12.274h-2.892V24.185c0-4.874-1.7-8.025-6.036-8.025a6.109 6.109 0 0 0-5.758 3.546 10.586 10.586 0 0 0-.654 4.374v12.381h-2.891v-22.58Zm56.94-13.14h2.891v35.713h-2.891Z"></path>
    <circle cx="1.767" cy="1.767" r="1.767" transform="translate(90.65 .568)"></circle>
    <path d="M190.408 13.881h2.891v22.58h-2.891Z"></path>
    <circle cx="1.767" cy="1.767" r="1.767" transform="translate(190.414 .568)"></circle>
    <path d="M27.705 30.388a15.333 15.333 0 1 1 .284-23.982l1.927-2.23a18.286 18.286 0 1 0-.235 28.411Zm37.192-16.482 11.05 24.08 11.466-24.08h-3.132L75.947 31.42l-7.926-17.514Zm133.432-.025h2.891v2.934c2.4-2.558 3.645-3.256 6.369-3.256 6.147 0 8.964 4.108 8.964 10.626v12.276h-2.886V24.185c0-4.874-1.7-8.025-6.036-8.025a6.109 6.109 0 0 0-5.758 3.546 10.586 10.586 0 0 0-.655 4.374v12.38h-2.891V13.881ZM129.378.74h3.12v16.193L147.658.74h3.839l-14.347 15.8 14.03 19.917h-3.731l-12.344-17.689-2.608 2.572v15.121h-3.12Z"></path>
    <path fill="#fff" d="M42.402 34.397a9.233 9.233 0 0 0 .037-18.453 9.227 9.227 0 0 0-.037 18.453Z"></path>
    <path d="M174.235 34.397a8.958 8.958 0 0 1-8.754-8.216h20.6a12.7 12.7 0 0 0-.785-5.245 11.826 11.826 0 1 0-11.03 16.055 12.007 12.007 0 0 0 10.28-6.048l-2.472-1.55a8.88 8.88 0 0 1-7.839 5.004Zm.043-18.453c4.25 0 7.722 3.015 8.8 7.636h-17.5a8.947 8.947 0 0 1 8.7-7.636Z"></path>
  </g>
</svg>
