<svg xmlns="http://www.w3.org/2000/svg" viewBox="0 0 40 40" id="the-north-face">
  <g fill-rule="evenodd">
    <path d="M27.2 23.77v3h-2.15v-4.36h.8a1.36 1.36 0 0 1 1.35 1.36Z"></path>
    <path d="M30.71 22.91v3.89h-3.27v-3a1.6 1.6 0 0 0-1.59-1.6h-.8v-4.49h.46a5.2 5.2 0 0 1 5.2 5.2Z"></path>
    <path d="M35 23.07v3.73h-4v-3.89a5.45 5.45 0 0 0-5.45-5.44h-.46v-4.38A10 10 0 0 1 35 23.07ZM15.9 17.38h-.89v-3.52h-1.3v-.76h3.49v.76h-1.3v3.52zM18.32 15.46v1.92h-.89V13.1h.89v1.62h1.67V13.1h.9v4.28h-.9v-1.92h-1.67zM24.47 13.86h-2.25v.9h1.98v.76h-1.98v1.11h2.26v.75h-3.09V13.1h3.08v.76zM11.7 26.8h-.9v-4.29h3.05v.76H11.7v.97h1.89v.75H11.7v1.81zM14.8 25.17h1.09l-.53-1.69-.54 1.69Zm-.54 1.62h-.94l1.52-4.28h1l1.5 4.28h-1l-.27-.88h-1.51ZM20.13 23.91a.88.88 0 0 0-.95-.74c-.43 0-1.06.29-1.06 1.5 0 .77.31 1.46 1.06 1.46a.91.91 0 0 0 .95-.8H21a1.79 1.79 0 0 1-1.86 1.58c-1.14 0-2-.77-2-2.25s.86-2.26 2-2.26A1.71 1.71 0 0 1 21 23.91ZM24.47 23.27h-2.25v.9h1.98v.76h-1.98v1.11h2.26v.76h-3.09v-4.29h3.08v.76zM7.65 17.81h.84v4.28h-.9l-1.74-3.05h-.02v3.05H5v-4.28h.94l1.7 2.98h.01v-2.98zM11 21.45c.48 0 1.16-.3 1.16-1.5s-.68-1.5-1.16-1.5-1.17.3-1.17 1.5.68 1.5 1.17 1.5Zm0-3.76A2 2 0 0 1 13 20a2 2 0 0 1-2 2.25A2 2 0 0 1 8.93 20 2 2 0 0 1 11 17.69ZM19.39 22.09h-.89v-3.53h-1.3v-.75h3.49v.75h-1.3v3.53zM21.9 20.17v1.92h-.89v-4.28h.89v1.62h1.67v-1.62h.9v4.28h-.9v-1.92H21.9zM15.41 19.69c.46 0 .69-.17.69-.59 0-.22-.11-.56-.63-.56h-1.11v1.15Zm-1.93-1.88h2.16A1.2 1.2 0 0 1 17 19a1 1 0 0 1-.66 1c.35.16.54.29.54 1.08 0 .63 0 .78.19.86v.11h-1a2.84 2.84 0 0 1-.09-.86c0-.59 0-.81-.7-.81h-.92v1.67h-.88v-4.24Z"></path>
  </g>
</svg>
