<svg xmlns="http://www.w3.org/2000/svg" viewBox="0 0 100 80" fill="#0a0a0a">
  <circle cx="18" cy="11" r="7.5"/>
  <path d="M10 9 Q18 3 26 9 L25 11 L11 11 Z"/>
  <rect x="6" y="9" width="8" height="3" rx="1.5"/>
  <rect x="14" y="20" width="8" height="22" rx="4" transform="rotate(14,18,31)"/>
  <rect x="2" y="21" width="16" height="5" rx="2.5" transform="rotate(-20,14,23.5)"/>
  <rect x="19" y="24" width="22" height="5" rx="2.5" transform="rotate(13,22,26.5)"/>
  <rect x="10" y="40" width="5.5" height="22" rx="2.75" transform="rotate(-14,12.75,51)"/>
  <rect x="16" y="40" width="5.5" height="22" rx="2.75" transform="rotate(9,18.75,51)"/>
  <rect x="41" y="27" width="18" height="14" rx="2"/>
  <polygon points="41,27 46,20 50,24.5 54,20 59,27"/>
  <polygon points="48,27 50,23 52,27" fill="white"/>
  <line x1="50" y1="27" x2="50" y2="41" stroke="white" stroke-width="1.4"/>
  <line x1="41" y1="34" x2="59" y2="34" stroke="white" stroke-width="1.4"/>
  <circle cx="82" cy="11" r="7.5"/>
  <rect x="78" y="20" width="8" height="22" rx="4" transform="rotate(-8,82,31)"/>
  <rect x="57" y="24" width="22" height="5" rx="2.5" transform="rotate(9,78,26.5)"/>
  <rect x="82" y="19" width="14" height="5" rx="2.5" transform="rotate(-23,84,21.5)"/>
  <rect x="77" y="40" width="5.5" height="22" rx="2.75" transform="rotate(-7,79.75,51)"/>
  <rect x="83" y="40" width="5.5" height="22" rx="2.75" transform="rotate(6,85.75,51)"/>
</svg>
