<svg xmlns="http://www.w3.org/2000/svg" viewBox="0 0 200 140" fill="#0a0a0a"><circle cx="36" cy="15" r="13"/><path d="M23 12 Q36 4 49 12 L48 15 H24 Z"/><path d="M16 11 Q17 16 22 15 H24 V11 Q20 10 16 11 Z"/><path d="M30 28 C27 40 24 52 23 64 L34 65 C34 52 37 40 42 28 Z"/><path d="M32 36 C25 32 17 28 11 26 C10 29 11 32 14 32 C20 33 26 37 31 40 Z"/><path d="M39 37 C47 41 57 46 76 52 C76 56 74 57 72 56 C53 50 43 45 37 41 Z"/><path d="M24 64 C20 77 17 90 15 107 H21 C23 90 26 77 30 64 Z"/><path d="M31 64 C33 77 35 90 36 107 H42 C40 90 38 77 36 64 Z"/><path d="M78 50 L84 40 L93 47 Z"/><path d="M110 50 L104 40 L93 47 Z"/><rect x="78" y="50" width="32" height="22" rx="2"/><path d="M88 50 L93 44 L98 50 Z" fill="white"/><line x1="94" y1="50" x2="94" y2="72" stroke="white" stroke-width="2"/><line x1="78" y1="61" x2="110" y2="61" stroke="white" stroke-width="2"/><circle cx="160" cy="15" r="13"/><path d="M154 28 C151 40 150 52 150 64 L161 64 C161 52 162 40 166 28 Z"/><path d="M153 38 C145 42 134 47 110 52 L110 56 C134 51 145 46 155 42 Z"/><path d="M163 36 C170 32 177 29 185 27 C185 30 183 32 178 33 C173 34 165 38 162 40 Z"/><path d="M151 64 C148 77 146 90 145 107 H151 C153 90 155 77 156 64 Z"/><path d="M158 64 C160 77 162 90 163 107 H169 C168 90 166 77 163 64 Z"/></svg>